# xmcd CD database file
# Copyright (C) 1993-1996 Ti Kan
#
# Track frame offsets:
# 150
# 10287
# 21565
# 32225
# 45700
# 54450
# 65232
# 77052
# 86047
# 97387
# 106595
# 117587
#
# Disc length: 1687 seconds
#
# Revision: 0
# Processed by: cddbd v1.4b41PL1 Copyright (c) Steve Scherf et al.
# Submitted via: inCDius 1.1b5
#
DISCID=a806950c
DTITLE=Loretta Lynn - You Ain't Woman Enough
DYEAR=1900
DGENRE=
TTITLE0=You Ain't Woman Enough
TTITLE1=Put It Off Until Tomorrow
TTITLE2=These Boots Are Made For Walkin'
TTITLE3=God Gave Me A Heeart To Forgive
TTITLE4=Keep Your Change
TTITLE5=Someone Before Me
TTITLE6=The Darkest Day
TTITLE7=Tippy Toeing
TTITLE8=Talking To The Wall
TTITLE9=A Man I Hardly Know
TTITLE10=Is It Wrong (For Loving You
TTITLE11=It's Another World
EXTD=
EXTT0=
EXTT1=
EXTT2=
EXTT3=
EXTT4=
EXTT5=
EXTT6=
EXTT7=
EXTT8=
EXTT9=
EXTT10=
EXTT11=
PLAYORDER=
